<?xml version="1.0" encoding="UTF-8" standalone="no"?>
<!-- Created with Inkscape (http://www.inkscape.org/) -->

<svg
   width="123.48566mm"
   height="123.48566mm"
   viewBox="0 0 123.48566 123.48566"
   version="1.1"
   id="svg386"
   sodipodi:docname="typo3-dark.svg"
   inkscape:version="1.1.1 (c3084ef, 2021-09-22)"
   xmlns:inkscape="http://www.inkscape.org/namespaces/inkscape"
   xmlns:sodipodi="http://sodipodi.sourceforge.net/DTD/sodipodi-0.dtd"
   xmlns="http://www.w3.org/2000/svg"
   xmlns:svg="http://www.w3.org/2000/svg">
  <sodipodi:namedview
     id="namedview14"
     pagecolor="#ffffff"
     bordercolor="#666666"
     borderopacity="1.0"
     inkscape:pageshadow="2"
     inkscape:pageopacity="0.0"
     inkscape:pagecheckerboard="0"
     inkscape:document-units="mm"
     showgrid="false"
     inkscape:zoom="1.5405467"
     inkscape:cx="90.876832"
     inkscape:cy="233.35872"
     inkscape:window-width="1622"
     inkscape:window-height="927"
     inkscape:window-x="0"
     inkscape:window-y="25"
     inkscape:window-maximized="0"
     inkscape:current-layer="layer1" />
  <defs
     id="defs383" />
  <g
     id="layer1"
     transform="translate(-5.5513032,-1.0443616)">
    <path
       fill="#ffffff"
       d="m 97.787384,86.140872 c -1.83074,0.54039 -3.28837,0.74245 -5.20311,0.74245 -15.68405,0 -38.71267,-54.80695 -38.71267,-73.04904 0,-6.7137304 1.58827,-8.9548104 3.8324,-10.8787104 -19.19633,2.24097 -42.22813,9.2842204 -49.5945528,18.2389104 -1.591442,2.24414 -2.558148,5.75948 -2.558148,10.24153 0,28.47737 30.3951708,93.094008 51.8356408,93.094008 9.91835,0 26.64041,-16.30573 40.40044,-38.389498"
       id="path132"
       style="stroke-width:3.1082;fill:#333333;fill-opacity:1" />
    <path
       fill="#ffffff"
       d="m 87.775884,1.0443616 c 19.833516,0 39.682546,3.19828 39.682546,14.3940504 0,22.71485 -14.40662,50.24115 -21.75754,50.24115 -13.119666,0 -29.437856,-36.48111 -29.437856,-54.72319 0,-8.3175104 3.1984,-9.9120104 11.51285,-9.9120104"
       id="path134"
       style="stroke-width:3.1082;fill:#333333;fill-opacity:1" />
  </g>
</svg>
